<?xml version="1.0" standalone="no"?>
<!DOCTYPE svg PUBLIC "-//W3C//DTD SVG 20010904//EN"
 "http://www.w3.org/TR/2001/REC-SVG-20010904/DTD/svg10.dtd">
<svg version="1.0" xmlns="http://www.w3.org/2000/svg"
 width="576.000000pt" height="576.000000pt" viewBox="0 0 576.000000 576.000000"
 preserveAspectRatio="xMidYMid meet">
<metadata>
Created by potrace 1.14, written by Peter Selinger 2001-2017
</metadata>
<g transform="translate(0.000000,576.000000) scale(0.100000,-0.100000)"
fill="#000000" stroke="none">
<path d="M5305 5672 c-48 -4 -60 -14 -87 -66 -11 -23 -34 -56 -49 -74 -25 -28
-29 -41 -29 -89 0 -50 -4 -60 -35 -94 -19 -22 -35 -44 -35 -50 0 -11 -52 -79
-95 -124 -26 -27 -106 -82 -138 -94 -14 -5 -40 -22 -58 -38 -36 -30 -39 -32
-162 -88 -44 -19 -86 -44 -95 -54 -10 -11 -55 -32 -102 -48 -47 -16 -114 -39
-150 -52 -36 -12 -87 -27 -115 -32 -39 -9 -62 -22 -111 -68 -53 -50 -72 -61
-130 -76 -96 -25 -144 -41 -179 -59 -38 -20 -184 -86 -190 -86 -16 0 -163 -75
-187 -95 -16 -14 -42 -28 -56 -31 -15 -4 -51 -17 -80 -30 -29 -13 -57 -24 -63
-24 -5 0 -28 -17 -52 -38 -23 -21 -53 -46 -67 -55 -14 -9 -41 -40 -60 -69 -21
-32 -49 -59 -68 -68 -23 -10 -42 -31 -64 -71 -16 -32 -37 -60 -46 -64 -8 -3
-40 -1 -71 6 -68 14 -150 -3 -184 -37 -21 -21 -49 -75 -77 -151 -7 -17 -29
-44 -51 -58 -21 -15 -55 -47 -74 -71 -20 -24 -42 -44 -49 -44 -26 0 -66 -42
-78 -81 -6 -22 -30 -59 -53 -82 -30 -31 -48 -63 -69 -122 -34 -100 -54 -139
-83 -171 -45 -49 -54 -107 -68 -464 -14 -364 -14 -364 -79 -463 -18 -28 -42
-70 -53 -91 -30 -65 -40 -66 -145 -13 -89 45 -97 47 -178 47 -120 0 -147 -10
-217 -80 -46 -46 -64 -72 -73 -108 -17 -63 -38 -102 -53 -102 -13 0 -57 80
-57 103 0 7 -13 39 -30 72 -16 33 -30 68 -30 79 0 10 -5 36 -11 57 -9 30 -9
42 1 54 18 22 39 18 49 -9 11 -27 29 -36 77 -36 65 0 55 38 -25 90 -21 14 -24
27 -32 115 -5 55 -16 123 -24 150 -25 90 -37 224 -32 359 4 111 12 160 50 317
25 103 57 209 71 235 13 27 43 86 65 132 22 46 47 90 56 98 8 9 15 19 15 22 0
4 10 18 23 32 12 14 35 43 51 65 16 22 57 68 90 102 34 34 73 74 88 90 98 100
153 153 161 153 4 0 13 5 20 10 7 6 30 26 51 44 42 37 311 176 339 176 9 0 17
4 17 9 0 4 24 15 53 24 68 20 173 56 217 73 19 7 58 13 87 13 28 0 81 9 117
20 55 17 82 19 168 14 172 -9 235 14 281 102 57 111 59 118 54 186 -9 103 -67
208 -137 244 -142 73 -317 72 -693 -6 -180 -37 -457 -134 -457 -159 0 -4 -6
-7 -13 -7 -14 0 -194 -89 -217 -107 -8 -7 -44 -27 -79 -45 -58 -29 -250 -165
-276 -195 -5 -6 -35 -31 -65 -54 -62 -49 -210 -205 -210 -221 0 -6 -4 -11 -9
-11 -5 0 -26 -26 -47 -57 -21 -32 -53 -76 -70 -98 -40 -52 -115 -177 -146
-241 -14 -28 -41 -78 -60 -110 -20 -32 -51 -108 -71 -169 -128 -400 -141 -483
-134 -855 5 -248 6 -258 35 -360 76 -259 166 -489 244 -624 105 -180 226 -348
290 -404 37 -33 81 -132 71 -159 -3 -7 -28 -25 -55 -39 -73 -37 -122 -87 -152
-153 -24 -55 -26 -65 -17 -120 14 -87 53 -151 125 -203 35 -25 47 -28 122 -28
78 0 85 2 125 32 26 21 57 61 82 105 22 40 57 94 77 120 l36 48 65 0 c55 0 70
-4 109 -31 83 -57 286 -136 470 -183 283 -72 354 -83 550 -85 186 -1 380 7
380 17 0 4 22 7 50 7 27 0 69 6 92 14 24 8 68 19 98 25 72 14 142 35 210 61
30 12 69 26 87 31 18 5 35 14 38 19 4 6 14 10 23 10 19 0 165 66 202 91 14 10
46 28 70 41 68 37 91 51 118 75 14 13 31 23 38 23 8 0 14 3 14 8 0 4 32 30 70
57 38 28 72 58 75 68 4 9 21 29 40 43 40 30 275 287 275 301 0 2 17 25 39 51
21 26 44 58 51 72 7 14 27 48 46 75 56 83 188 400 220 526 35 138 40 303 12
354 -41 76 -113 115 -212 115 -105 0 -205 -66 -211 -140 -1 -15 -4 -31 -7 -36
-3 -5 -11 -43 -18 -84 -6 -41 -13 -86 -16 -100 -8 -53 -42 -157 -67 -205 -14
-27 -36 -74 -49 -104 -13 -30 -44 -83 -70 -118 -26 -35 -56 -84 -68 -109 -12
-24 -30 -49 -41 -54 -10 -6 -36 -36 -58 -68 -51 -75 -135 -162 -191 -197 -25
-15 -58 -41 -75 -58 -16 -16 -53 -40 -80 -52 -28 -13 -69 -38 -92 -58 -23 -19
-77 -49 -120 -66 -43 -18 -95 -41 -115 -52 -100 -53 -276 -89 -588 -118 -201
-18 -633 45 -729 108 -13 8 -65 29 -115 47 -49 17 -95 38 -100 47 -7 11 -5 25
7 49 9 18 23 49 31 69 9 23 30 47 57 65 27 18 53 47 67 74 15 29 37 53 62 68
22 12 51 40 65 61 14 20 42 47 63 59 21 11 46 30 57 42 10 11 24 20 31 20 7 0
14 5 16 11 5 14 125 47 213 59 230 31 279 69 304 230 7 41 17 78 24 82 14 9
22 9 282 13 286 3 420 27 610 110 55 24 115 49 134 56 19 7 56 32 82 55 26 23
65 52 86 64 22 12 47 35 57 51 9 16 38 43 64 60 26 18 54 40 63 49 9 9 28 25
41 36 13 10 33 32 45 47 12 16 40 42 63 58 44 32 49 48 22 72 -25 23 -65 30
-187 32 -60 1 -123 7 -140 13 -16 6 -57 19 -89 29 -33 10 -62 24 -64 32 -4 10
15 12 94 9 98 -4 354 20 433 42 22 6 52 23 67 39 16 16 66 49 112 74 92 51
213 166 317 301 33 43 75 95 93 115 18 20 39 58 47 84 8 27 28 64 45 83 25 29
30 43 30 88 0 44 5 60 30 91 16 20 32 46 36 58 3 12 22 58 41 102 82 188 158
457 189 675 18 120 21 530 5 601 -6 24 -15 87 -21 139 -13 109 -34 193 -52
206 -7 5 -31 8 -53 6z m-1272 -1763 c35 -9 37 -12 37 -52 0 -23 -10 -62 -21
-87 -24 -52 -19 -115 9 -136 20 -14 17 -16 -58 -33 -25 -5 -70 -17 -100 -25
-31 -9 -94 -16 -142 -16 -102 0 -133 -10 -155 -48 -12 -20 -34 -35 -77 -50
-72 -26 -82 -27 -90 -7 -9 24 29 55 67 55 37 0 57 15 57 42 0 27 30 55 68 63
33 7 92 57 92 79 0 7 18 22 40 35 38 21 81 68 92 101 5 13 123 90 138 90 3 0
22 -5 43 -11z m416 -188 c37 -20 13 -31 -68 -31 -51 0 -84 5 -97 14 -18 14
-18 15 6 25 30 13 129 8 159 -8z m-1359 -629 c0 -21 -18 -42 -37 -42 -16 0
-17 32 -1 48 18 18 38 15 38 -6z m-102 -116 c8 -38 -68 -71 -106 -47 -10 6 -6
16 17 40 35 37 83 41 89 7z m-138 -120 c0 -41 -21 -60 -55 -52 -33 8 -32 28 6
65 36 36 49 33 49 -13z m-299 -372 c18 -11 8 -34 -30 -71 -21 -21 -44 -55 -52
-76 -10 -28 -24 -42 -57 -59 -29 -14 -53 -35 -70 -63 -14 -23 -38 -50 -53 -61
-16 -10 -39 -39 -53 -64 -14 -25 -39 -58 -56 -75 -18 -16 -40 -46 -50 -65 -20
-37 -47 -67 -92 -101 -15 -11 -35 -36 -44 -56 -10 -20 -37 -48 -63 -65 -26
-17 -57 -49 -71 -70 -14 -22 -39 -48 -56 -59 -18 -11 -44 -35 -59 -55 -32 -42
-81 -74 -112 -74 -16 0 -27 -11 -42 -42 -47 -101 -101 -111 -101 -21 0 38 18
62 55 71 25 7 32 16 43 55 10 36 26 57 72 97 33 29 60 57 60 64 0 7 32 48 71
91 39 44 83 95 97 114 15 18 43 44 64 57 24 16 47 42 61 71 15 32 34 53 62 68
27 15 47 36 61 65 24 48 57 80 83 80 11 0 26 18 40 50 15 34 33 56 54 66 34
18 66 52 67 71 0 6 12 26 27 43 26 31 29 32 81 26 30 -4 59 -9 63 -12z m-1012
-593 c9 -6 15 -27 15 -58 1 -47 0 -48 -43 -69 -25 -12 -57 -36 -71 -54 -42
-52 -60 -37 -60 49 0 83 17 110 82 127 55 15 60 16 77 5z"/>
<path d="M694 510 c-15 -6 -25 -24 -34 -59 -16 -66 1 -97 57 -106 21 -4 42 -8
47 -9 11 -3 40 25 54 51 8 14 5 33 -11 73 -20 51 -25 55 -57 57 -19 1 -45 -2
-56 -7z"/>
<path d="M457 350 c-16 -5 -43 -20 -62 -34 -31 -24 -33 -28 -34 -96 -1 -84 14
-105 83 -115 105 -16 149 14 165 114 9 53 8 70 -5 96 -20 43 -77 56 -147 35z"/>
</g>
</svg>
